<svg viewBox="0 0 800 450" xmlns="http://www.w3.org/2000/svg" role="img" aria-label="Hands joined together">
  <defs>
    <linearGradient id="bg" x1="0" y1="0" x2="1" y2="1">
      <stop offset="0%" stop-color="#534ab7"/>
      <stop offset="100%" stop-color="#251f63"/>
    </linearGradient>
  </defs>
  <rect width="800" height="450" fill="url(#bg)"/>
  <g transform="translate(120 130)">
    <g fill="#ffd1ba" transform="translate(30 80) rotate(-30)">
      <rect x="0" y="0" width="80" height="160" rx="40"/>
      <rect x="-12" y="0" width="20" height="100" rx="10"/>
      <rect x="84" y="20" width="22" height="80" rx="10"/>
    </g>
    <g fill="#ffe3a6" transform="translate(170 30) rotate(-5)">
      <rect x="0" y="0" width="80" height="180" rx="40"/>
      <rect x="-14" y="20" width="20" height="100" rx="10"/>
      <rect x="80" y="20" width="22" height="90" rx="10"/>
    </g>
    <g fill="#ffbf9c" transform="translate(310 30) rotate(5)">
      <rect x="0" y="0" width="80" height="180" rx="40"/>
      <rect x="-14" y="20" width="20" height="90" rx="10"/>
      <rect x="80" y="20" width="22" height="100" rx="10"/>
    </g>
    <g fill="#f6cfa0" transform="translate(440 80) rotate(30)">
      <rect x="0" y="0" width="80" height="160" rx="40"/>
      <rect x="-14" y="0" width="22" height="80" rx="10"/>
      <rect x="80" y="0" width="20" height="100" rx="10"/>
    </g>
  </g>
  <g fill="#ffffff" opacity="0.5">
    <circle cx="180" cy="80" r="6"/>
    <circle cx="640" cy="120" r="6"/>
    <circle cx="120" cy="350" r="6"/>
    <circle cx="700" cy="360" r="6"/>
  </g>
</svg>
