<svg viewBox="0 0 800 450" xmlns="http://www.w3.org/2000/svg" role="img" aria-label="Students on the campus quad">
  <defs>
    <linearGradient id="sky" x1="0" y1="0" x2="0" y2="1">
      <stop offset="0%" stop-color="#a5d8ff"/>
      <stop offset="100%" stop-color="#e5b8ff"/>
    </linearGradient>
  </defs>
  <rect width="800" height="280" fill="url(#sky)"/>
  <rect x="0" y="280" width="800" height="170" fill="#5da972"/>
  <circle cx="660" cy="100" r="50" fill="#ffd166"/>
  <g fill="#3a7a4d" opacity="0.95">
    <ellipse cx="120" cy="280" rx="130" ry="30"/>
    <ellipse cx="430" cy="280" rx="180" ry="30"/>
    <ellipse cx="680" cy="280" rx="150" ry="30"/>
  </g>
  <g fill="#ffffff">
    <circle cx="270" cy="305" r="14"/>
    <rect x="258" y="318" width="24" height="40" rx="10"/>
    <circle cx="330" cy="300" r="14"/>
    <rect x="318" y="313" width="24" height="44" rx="10"/>
    <circle cx="390" cy="305" r="14"/>
    <rect x="378" y="318" width="24" height="40" rx="10"/>
    <circle cx="510" cy="305" r="14"/>
    <rect x="498" y="318" width="24" height="40" rx="10"/>
    <circle cx="570" cy="300" r="14"/>
    <rect x="558" y="313" width="24" height="44" rx="10"/>
  </g>
  <g fill="#3a7a4d">
    <rect x="260" y="358" width="22" height="40" rx="4"/>
    <rect x="320" y="357" width="22" height="42" rx="4"/>
    <rect x="380" y="358" width="22" height="40" rx="4"/>
    <rect x="500" y="358" width="22" height="40" rx="4"/>
    <rect x="560" y="357" width="22" height="42" rx="4"/>
  </g>
</svg>
