<svg viewBox="0 0 800 450" xmlns="http://www.w3.org/2000/svg" role="img" aria-label="Pizza on a wooden board">
  <defs>
    <linearGradient id="bg" x1="0" y1="0" x2="0" y2="1">
      <stop offset="0%" stop-color="#a83e1a"/>
      <stop offset="100%" stop-color="#5c1c0a"/>
    </linearGradient>
  </defs>
  <rect width="800" height="450" fill="url(#bg)"/>
  <g transform="translate(400 240)">
    <circle r="160" fill="#3a210b"/>
    <circle r="148" fill="#f0d28e"/>
    <circle r="138" fill="#e8965a"/>
    <circle r="118" fill="#d9523b"/>
    <g fill="#fff3df">
      <circle cx="-60" cy="-30" r="14"/>
      <circle cx="40" cy="-50" r="14"/>
      <circle cx="60" cy="40" r="14"/>
      <circle cx="-30" cy="60" r="14"/>
      <circle cx="-70" cy="40" r="14"/>
      <circle cx="30" cy="20" r="14"/>
    </g>
    <g fill="#9a2415">
      <circle cx="-30" cy="-50" r="10"/>
      <circle cx="60" cy="-10" r="10"/>
      <circle cx="0" cy="60" r="10"/>
      <circle cx="-60" cy="20" r="10"/>
      <circle cx="50" cy="60" r="10"/>
      <circle cx="-10" cy="-15" r="10"/>
    </g>
    <g fill="#4d8d3a">
      <ellipse cx="-50" cy="-10" rx="8" ry="4"/>
      <ellipse cx="20" cy="-30" rx="8" ry="4"/>
      <ellipse cx="40" cy="0" rx="8" ry="4"/>
      <ellipse cx="-20" cy="30" rx="8" ry="4"/>
      <ellipse cx="20" cy="50" rx="8" ry="4"/>
    </g>
  </g>
  <g fill="#ffffff" opacity="0.4">
    <circle cx="120" cy="70" r="6"/>
    <circle cx="690" cy="80" r="6"/>
    <circle cx="80" cy="380" r="6"/>
    <circle cx="700" cy="370" r="6"/>
  </g>
</svg>
