<svg viewBox="0 0 800 450" xmlns="http://www.w3.org/2000/svg" role="img" aria-label="Fresh bowl of salad">
  <defs>
    <linearGradient id="bg" x1="0" y1="0" x2="1" y2="1">
      <stop offset="0%" stop-color="#1d9e75"/>
      <stop offset="100%" stop-color="#0a4e38"/>
    </linearGradient>
  </defs>
  <rect width="800" height="450" fill="url(#bg)"/>
  <g transform="translate(400 240)">
    <ellipse cx="0" cy="100" rx="180" ry="20" fill="#022518" opacity="0.55"/>
    <ellipse cx="0" cy="0" rx="180" ry="60" fill="#fefae0"/>
    <ellipse cx="0" cy="0" rx="160" ry="48" fill="#fff8d6"/>
    <g>
      <ellipse cx="-70" cy="-18" rx="36" ry="22" fill="#65b35a"/>
      <ellipse cx="-30" cy="-26" rx="34" ry="20" fill="#7ec762"/>
      <ellipse cx="40" cy="-22" rx="40" ry="22" fill="#65b35a"/>
      <ellipse cx="80" cy="-12" rx="32" ry="18" fill="#7ec762"/>
      <ellipse cx="-90" cy="-2" rx="32" ry="18" fill="#7ec762"/>
    </g>
    <g fill="#d9523b">
      <circle cx="-50" cy="-10" r="10"/>
      <circle cx="20" cy="-18" r="10"/>
      <circle cx="60" cy="-2" r="10"/>
    </g>
    <g fill="#ffd166">
      <ellipse cx="-20" cy="-2" rx="10" ry="6"/>
      <ellipse cx="40" cy="-16" rx="10" ry="6"/>
      <ellipse cx="-65" cy="-22" rx="10" ry="6"/>
    </g>
    <g fill="#7a4a1a">
      <rect x="-10" y="-14" width="20" height="8" rx="2"/>
      <rect x="-46" y="0" width="20" height="8" rx="2"/>
      <rect x="30" y="0" width="20" height="8" rx="2"/>
    </g>
  </g>
  <g fill="#ffffff" opacity="0.5">
    <circle cx="120" cy="80" r="6"/>
    <circle cx="690" cy="100" r="6"/>
    <circle cx="100" cy="370" r="6"/>
    <circle cx="700" cy="380" r="6"/>
  </g>
</svg>
