<svg viewBox="0 0 800 450" xmlns="http://www.w3.org/2000/svg" role="img" aria-label="Confetti celebration">
  <defs>
    <linearGradient id="bg" x1="0" y1="0" x2="1" y2="1">
      <stop offset="0%" stop-color="#c25700"/>
      <stop offset="100%" stop-color="#7e2900"/>
    </linearGradient>
  </defs>
  <rect width="800" height="450" fill="url(#bg)"/>
  <g>
    <rect x="120" y="80" width="14" height="22" rx="2" fill="#ffd166" transform="rotate(20 127 91)"/>
    <rect x="200" y="60" width="14" height="22" rx="2" fill="#06d6a0" transform="rotate(-30 207 71)"/>
    <rect x="300" y="100" width="14" height="22" rx="2" fill="#ef476f" transform="rotate(15 307 111)"/>
    <rect x="420" y="60" width="14" height="22" rx="2" fill="#118ab2" transform="rotate(-45 427 71)"/>
    <rect x="520" y="120" width="14" height="22" rx="2" fill="#ffd166" transform="rotate(60 527 131)"/>
    <rect x="620" y="80" width="14" height="22" rx="2" fill="#06d6a0" transform="rotate(-20 627 91)"/>
    <rect x="700" y="160" width="14" height="22" rx="2" fill="#ef476f" transform="rotate(40 707 171)"/>
    <rect x="80" y="220" width="14" height="22" rx="2" fill="#118ab2" transform="rotate(-15 87 231)"/>
    <rect x="640" y="280" width="14" height="22" rx="2" fill="#ffd166" transform="rotate(70 647 291)"/>
    <rect x="170" y="340" width="14" height="22" rx="2" fill="#06d6a0" transform="rotate(35 177 351)"/>
  </g>
  <g fill="#ffffff" opacity="0.85">
    <circle cx="400" cy="270" r="80"/>
  </g>
  <g fill="#c25700">
    <rect x="380" y="240" width="40" height="6" rx="2"/>
    <rect x="380" y="260" width="40" height="6" rx="2"/>
    <rect x="380" y="280" width="40" height="6" rx="2"/>
    <circle cx="400" cy="225" r="6"/>
  </g>
  <g stroke="#ffffff" stroke-width="3" fill="none" opacity="0.6">
    <path d="M280 200 Q400 130 520 200"/>
    <path d="M260 320 Q400 380 540 320"/>
  </g>
</svg>
