<svg viewBox="0 0 800 450" xmlns="http://www.w3.org/2000/svg" role="img" aria-label="Athletic event">
  <defs>
    <linearGradient id="bg" x1="0" y1="0" x2="0" y2="1">
      <stop offset="0%" stop-color="#0e7c4a"/>
      <stop offset="60%" stop-color="#0a5d38"/>
      <stop offset="100%" stop-color="#06381f"/>
    </linearGradient>
  </defs>
  <rect width="800" height="450" fill="url(#bg)"/>
  <g stroke="#ffffff" stroke-width="3" fill="none" opacity="0.5">
    <rect x="60" y="80" width="680" height="320"/>
    <line x1="400" y1="80" x2="400" y2="400"/>
    <circle cx="400" cy="240" r="60"/>
    <rect x="60" y="160" width="100" height="160"/>
    <rect x="640" y="160" width="100" height="160"/>
  </g>
  <g fill="#ffffff" opacity="0.95">
    <circle cx="400" cy="240" r="32"/>
  </g>
  <g fill="#1c1c1c">
    <polygon points="380,240 400,220 420,240 412,256 388,256"/>
    <polygon points="368,230 376,210 388,228"/>
    <polygon points="432,230 424,210 412,228"/>
    <polygon points="376,266 376,280 392,275"/>
    <polygon points="424,266 424,280 408,275"/>
  </g>
  <g fill="#ffd166" opacity="0.85">
    <path d="M180 360 c10 -25 35 -25 45 0 l-22 -10 z"/>
    <path d="M580 100 c10 -25 35 -25 45 0 l-22 -10 z"/>
  </g>
</svg>
