<svg viewBox="0 0 800 450" xmlns="http://www.w3.org/2000/svg" role="img" aria-label="Stage lights at a campus event">
  <defs>
    <linearGradient id="bg" x1="0" y1="0" x2="0" y2="1">
      <stop offset="0%" stop-color="#7e3a98"/>
      <stop offset="100%" stop-color="#391849"/>
    </linearGradient>
    <radialGradient id="spot" cx="50%" cy="0%" r="60%">
      <stop offset="0%" stop-color="#ffd166" stop-opacity="0.55"/>
      <stop offset="100%" stop-color="#ffd166" stop-opacity="0"/>
    </radialGradient>
  </defs>
  <rect width="800" height="450" fill="url(#bg)"/>
  <polygon points="220,0 280,300 160,300" fill="url(#spot)"/>
  <polygon points="400,0 460,300 340,300" fill="url(#spot)"/>
  <polygon points="580,0 640,300 520,300" fill="url(#spot)"/>
  <rect x="0" y="300" width="800" height="150" fill="#1f0c2c"/>
  <g fill="#1f0c2c">
    <circle cx="220" cy="320" r="18"/>
    <rect x="208" y="330" width="24" height="60" rx="4"/>
    <circle cx="280" cy="315" r="18"/>
    <rect x="268" y="325" width="24" height="65" rx="4"/>
    <circle cx="340" cy="320" r="18"/>
    <rect x="328" y="330" width="24" height="60" rx="4"/>
    <circle cx="400" cy="310" r="20"/>
    <rect x="386" y="322" width="28" height="68" rx="4"/>
    <circle cx="460" cy="320" r="18"/>
    <rect x="448" y="330" width="24" height="60" rx="4"/>
    <circle cx="520" cy="315" r="18"/>
    <rect x="508" y="325" width="24" height="65" rx="4"/>
    <circle cx="580" cy="320" r="18"/>
    <rect x="568" y="330" width="24" height="60" rx="4"/>
  </g>
  <g fill="#ffffff" opacity="0.7">
    <circle cx="120" cy="90" r="3"/>
    <circle cx="200" cy="60" r="2"/>
    <circle cx="680" cy="80" r="3"/>
    <circle cx="600" cy="50" r="2"/>
    <circle cx="730" cy="160" r="2"/>
  </g>
</svg>
