<svg viewBox="0 0 800 450" xmlns="http://www.w3.org/2000/svg" role="img" aria-label="Bulletin board with announcements">
  <defs>
    <linearGradient id="bg" x1="0" y1="0" x2="0" y2="1">
      <stop offset="0%" stop-color="#1976d2"/>
      <stop offset="100%" stop-color="#0e3a72"/>
    </linearGradient>
  </defs>
  <rect width="800" height="450" fill="url(#bg)"/>
  <g opacity="0.85">
    <rect x="120" y="80" width="240" height="290" rx="8" fill="#ffffff"/>
    <rect x="155" y="115" width="170" height="10" rx="3" fill="#1976d2" opacity="0.6"/>
    <rect x="155" y="140" width="120" height="6" rx="2" fill="#0e3a72" opacity="0.4"/>
    <rect x="155" y="170" width="160" height="6" rx="2" fill="#0e3a72" opacity="0.3"/>
    <rect x="155" y="186" width="140" height="6" rx="2" fill="#0e3a72" opacity="0.3"/>
    <rect x="155" y="202" width="170" height="6" rx="2" fill="#0e3a72" opacity="0.3"/>
    <rect x="155" y="240" width="170" height="6" rx="2" fill="#0e3a72" opacity="0.3"/>
    <rect x="155" y="256" width="150" height="6" rx="2" fill="#0e3a72" opacity="0.3"/>
    <circle cx="170" cy="320" r="6" fill="#ff5b3a"/>
  </g>
  <g opacity="0.6">
    <rect x="430" y="50" width="240" height="160" rx="8" fill="#ffffff" transform="rotate(-3 550 130)"/>
    <rect x="455" y="80" width="170" height="10" rx="3" fill="#1976d2" opacity="0.5" transform="rotate(-3 540 85)"/>
    <rect x="455" y="105" width="190" height="6" rx="2" fill="#0e3a72" opacity="0.3" transform="rotate(-3 550 108)"/>
    <rect x="455" y="125" width="160" height="6" rx="2" fill="#0e3a72" opacity="0.3" transform="rotate(-3 535 128)"/>
    <circle cx="475" cy="175" r="5" fill="#22c55e" transform="rotate(-3 475 175)"/>
  </g>
  <g opacity="0.75">
    <rect x="450" y="240" width="240" height="150" rx="8" fill="#ffffff" transform="rotate(2 570 315)"/>
    <rect x="475" y="270" width="180" height="10" rx="3" fill="#1976d2" opacity="0.6" transform="rotate(2 565 275)"/>
    <rect x="475" y="295" width="160" height="6" rx="2" fill="#0e3a72" opacity="0.3" transform="rotate(2 555 298)"/>
    <rect x="475" y="315" width="180" height="6" rx="2" fill="#0e3a72" opacity="0.3" transform="rotate(2 565 318)"/>
    <circle cx="495" cy="365" r="5" fill="#facc15" transform="rotate(2 495 365)"/>
  </g>
</svg>
