<svg viewBox="0 0 800 450" xmlns="http://www.w3.org/2000/svg" role="img" aria-label="Campus skyline at dusk">
  <defs>
    <linearGradient id="bg" x1="0" y1="0" x2="0" y2="1">
      <stop offset="0%" stop-color="#5b5fb3"/>
      <stop offset="100%" stop-color="#2a2d6e"/>
    </linearGradient>
  </defs>
  <rect width="800" height="450" fill="url(#bg)"/>
  <circle cx="650" cy="120" r="48" fill="#ffe97a" opacity="0.85"/>
  <g fill="#1b1d4a" opacity="0.9">
    <rect x="90" y="200" width="120" height="190"/>
    <rect x="230" y="160" width="80" height="230"/>
    <rect x="330" y="220" width="160" height="170"/>
    <rect x="510" y="190" width="60" height="200"/>
    <rect x="590" y="250" width="120" height="140"/>
    <polygon points="290,160 290,135 270,135 270,160"/>
    <polygon points="490,220 490,180 460,180 460,220"/>
  </g>
  <g fill="#ffe97a" opacity="0.8">
    <rect x="110" y="225" width="14" height="14"/>
    <rect x="140" y="225" width="14" height="14"/>
    <rect x="110" y="255" width="14" height="14"/>
    <rect x="170" y="255" width="14" height="14"/>
    <rect x="110" y="285" width="14" height="14"/>
    <rect x="170" y="285" width="14" height="14"/>
    <rect x="250" y="195" width="12" height="12"/>
    <rect x="280" y="195" width="12" height="12"/>
    <rect x="250" y="245" width="12" height="12"/>
    <rect x="280" y="245" width="12" height="12"/>
    <rect x="345" y="245" width="12" height="12"/>
    <rect x="425" y="245" width="12" height="12"/>
    <rect x="345" y="295" width="12" height="12"/>
    <rect x="455" y="295" width="12" height="12"/>
    <rect x="615" y="280" width="12" height="12"/>
    <rect x="675" y="280" width="12" height="12"/>
    <rect x="615" y="325" width="12" height="12"/>
    <rect x="675" y="325" width="12" height="12"/>
  </g>
</svg>
