<svg width="521" height="95" viewBox="0 0 521 95" fill="none" xmlns="http://www.w3.org/2000/svg">
<g clip-path="url(#clip0_643_650)">
<path d="M95.1888 0V37.1739H74.4954V20.6522H20.6932V95H0V0H95.1888Z" fill="black"/>
<path d="M95.1886 95H37.2476V74.3476H74.4952V57.826H95.1886V95Z" fill="black"/>
<path d="M57.9408 57.8261H37.2476V37.1739H57.9408V57.8261Z" fill="black"/>
<path d="M148.528 53.775H136.575V2.59167H158.616C171.467 2.59167 177.824 11.1683 177.824 19.745C177.824 28.3908 171.467 37.0366 158.616 37.0366H148.528V53.775ZM158.547 13.0358H148.528V26.6617H158.547C163.384 26.6617 165.801 23.2033 165.801 19.8142C165.801 16.425 163.384 13.0358 158.547 13.0358Z" fill="black"/>
<path d="M200.377 53.775H188.424V2.59167H210.05C221.381 2.59167 228.705 8.67832 228.705 18.6383C228.705 25.4858 225.25 30.4658 219.377 32.8867L229.949 53.775H216.752L207.286 34.6159H200.377V53.775ZM209.912 12.8975H200.377V25.0017H209.912C214.057 25.0017 216.752 22.65 216.752 18.9842C216.752 15.3183 214.057 12.8975 209.912 12.8975Z" fill="black"/>
<path d="M254.655 53.775H242.702V2.59167H254.655V53.775Z" fill="black"/>
<path d="M304.11 53.775H267.629V2.59167H303.764V12.9667H279.582V22.8575H300.655V32.7483H279.582V43.4H304.11V53.775Z" fill="black"/>
<path d="M336.27 54.4667C315.68 54.4667 314.506 37.59 314.506 37.59H326.597C326.597 37.59 327.426 44.645 336.684 44.645C342.419 44.645 344.768 41.9475 344.768 38.9733C344.768 36.2758 342.972 34.7542 338.757 33.9934L331.917 32.8175C323.35 31.2959 315.473 27.4917 315.473 17.8083C315.473 8.26338 323.073 1.90002 335.095 1.90002C353.819 1.90002 355.27 17.4625 355.27 17.4625H343.455C343.455 17.4625 342.627 11.6525 334.819 11.6525C329.223 11.6525 327.219 14.5575 327.219 17.1167C327.219 20.0217 330.051 21.2667 333.921 22.0275L341.175 23.2726C349.605 24.7942 356.721 29.2209 356.721 38.2125C356.721 47.55 349.398 54.4667 336.27 54.4667Z" fill="black"/>
<path d="M391.767 53.775H379.744V12.9667H364.199V2.59167H407.312V12.9667H391.767V53.775Z" fill="black"/>
<path d="M440.073 54.4667C422.731 54.4667 413.818 41.2559 413.818 28.1142C413.818 15.1109 422.731 1.90002 440.073 1.90002C457.415 1.90002 466.259 15.1109 466.259 28.1142C466.259 41.2559 457.415 54.4667 440.073 54.4667ZM440.073 43.7459C449.124 43.7459 453.822 35.9992 453.822 28.1142C453.822 20.2984 449.124 12.5517 440.073 12.5517C430.952 12.5517 426.323 20.2984 426.323 28.1142C426.323 35.9992 430.952 43.7459 440.073 43.7459Z" fill="black"/>
<path d="M489.135 53.775H477.251V2.59167H488.238L508.689 33.1634V2.59167H520.503V53.775H509.449L489.135 24.4483V53.775Z" fill="black"/>
<path d="M145.598 93.7333C144.099 93.7333 142.782 93.4578 141.649 92.9068C140.516 92.3381 139.574 91.5888 138.825 90.6591C138.075 89.7116 137.508 88.6616 137.125 87.5076C136.759 86.3366 136.575 85.1396 136.575 83.9166C136.575 82.6937 136.759 81.4967 137.125 80.3256C137.508 79.1546 138.075 78.1039 138.825 77.1742C139.574 76.2267 140.516 75.4775 141.649 74.9265C142.782 74.3755 144.099 74.1 145.598 74.1C146.819 74.1 147.865 74.2551 148.737 74.5648C149.626 74.8752 150.367 75.2799 150.959 75.7789C151.552 76.2786 152.032 76.8037 152.398 77.3547C152.764 77.9063 153.035 78.4313 153.209 78.931C153.401 79.4301 153.523 79.8348 153.575 80.1451C153.644 80.4548 153.679 80.61 153.679 80.61H151.64C151.64 80.61 151.605 80.4548 151.535 80.1451C151.465 79.8348 151.317 79.4472 151.09 78.9823C150.864 78.5175 150.524 78.0526 150.07 77.5877C149.634 77.1222 149.051 76.7353 148.318 76.4249C147.603 76.1152 146.697 75.9601 145.598 75.9601C144.447 75.9601 143.436 76.1836 142.564 76.6314C141.693 77.0792 140.96 77.691 140.368 78.4655C139.793 79.2236 139.357 80.0761 139.06 81.0236C138.763 81.9533 138.615 82.9179 138.615 83.9166C138.615 84.8983 138.763 85.8629 139.06 86.8097C139.357 87.7572 139.793 88.6185 140.368 89.3931C140.96 90.1512 141.693 90.7541 142.564 91.2019C143.436 91.6496 144.447 91.8732 145.598 91.8732C146.697 91.8732 147.603 91.718 148.318 91.4083C149.051 91.098 149.634 90.711 150.07 90.2455C150.524 89.7807 150.864 89.3158 151.09 88.8509C151.317 88.3861 151.465 87.9985 151.535 87.6881C151.605 87.3613 151.64 87.1973 151.64 87.1973H153.679C153.679 87.1973 153.644 87.3613 153.575 87.6881C153.523 87.9985 153.401 88.4032 153.209 88.9022C153.035 89.3848 152.764 89.9099 152.398 90.4786C152.032 91.0296 151.552 91.5546 150.959 92.0543C150.367 92.5534 149.626 92.9581 148.737 93.2684C147.865 93.5781 146.819 93.7333 145.598 93.7333Z" fill="black"/>
<path d="M179.298 93.7333C177.78 93.7333 176.438 93.4578 175.27 92.9068C174.119 92.3381 173.152 91.5888 172.367 90.6591C171.6 89.7116 171.016 88.6527 170.615 87.4817C170.231 86.3106 170.039 85.1136 170.039 83.8907C170.039 82.6854 170.231 81.4967 170.615 80.3256C171.016 79.1546 171.6 78.1039 172.367 77.1742C173.152 76.2267 174.119 75.4775 175.27 74.9265C176.438 74.3755 177.78 74.1 179.298 74.1C180.814 74.1 182.148 74.3755 183.299 74.9265C184.449 75.4775 185.409 76.2267 186.176 77.1742C186.96 78.1039 187.553 79.1546 187.954 80.3256C188.355 81.4967 188.556 82.6854 188.556 83.8907C188.556 85.1136 188.355 86.3106 187.954 87.4817C187.553 88.6527 186.96 89.7116 186.176 90.6591C185.409 91.5888 184.449 92.3381 183.299 92.9068C182.148 93.4578 180.814 93.7333 179.298 93.7333ZM179.298 91.8732C180.71 91.8732 181.956 91.5287 183.037 90.8402C184.118 90.1341 184.964 89.1777 185.574 87.9725C186.184 86.7666 186.49 85.4062 186.49 83.8907C186.49 82.3922 186.184 81.0489 185.574 79.8608C184.964 78.6555 184.118 77.7081 183.037 77.019C181.956 76.3128 180.71 75.9601 179.298 75.9601C177.868 75.9601 176.612 76.3128 175.531 77.019C174.45 77.7081 173.605 78.6555 172.994 79.8608C172.385 81.0489 172.079 82.3922 172.079 83.8907C172.079 85.4062 172.385 86.7666 172.994 87.9725C173.605 89.1777 174.45 90.1341 175.531 90.8402C176.612 91.5287 177.868 91.8732 179.298 91.8732Z" fill="black"/>
<path d="M205.537 93.4749V74.3584H207.393L218.195 89.9099V74.3584H220.208V93.4749H218.352L207.55 77.9234V93.4749H205.537Z" fill="black"/>
<path d="M244.18 93.7333C243.046 93.7333 242.079 93.5952 241.276 93.3197C240.492 93.0271 239.839 92.6566 239.316 92.2089C238.81 91.7611 238.4 91.288 238.086 90.7883C237.789 90.2886 237.572 89.8155 237.432 89.3677C237.293 88.92 237.206 88.5583 237.171 88.2822C237.136 87.9896 237.119 87.8433 237.119 87.8433H239.158C239.158 87.8433 239.176 87.9814 239.211 88.2569C239.263 88.5324 239.368 88.8769 239.524 89.2898C239.699 89.6863 239.969 90.091 240.335 90.5039C240.702 90.9004 241.198 91.2361 241.826 91.5116C242.454 91.77 243.256 91.8992 244.232 91.8992C245.557 91.8992 246.629 91.5635 247.449 90.8915C248.268 90.2202 248.678 89.35 248.678 88.2822C248.678 87.2834 248.347 86.526 247.685 86.0092C247.039 85.4924 246.185 85.1048 245.121 84.8464L242.637 84.2523C241.695 84.0116 240.849 83.6924 240.1 83.2966C239.351 82.883 238.757 82.358 238.321 81.7209C237.886 81.0666 237.668 80.2655 237.668 79.318C237.668 78.2331 237.938 77.3034 238.479 76.5282C239.019 75.7536 239.751 75.1589 240.676 74.746C241.6 74.3153 242.654 74.1 243.84 74.1C245.026 74.1 246.002 74.2811 246.769 74.6427C247.536 75.0044 248.147 75.4521 248.6 75.986C249.053 76.5022 249.384 77.0279 249.593 77.5618C249.82 78.0957 249.96 78.5434 250.012 78.9051C250.081 79.2667 250.116 79.4472 250.116 79.4472H248.129C248.129 79.4472 248.112 79.3269 248.077 79.0856C248.042 78.8449 247.946 78.5517 247.789 78.2078C247.65 77.8455 247.423 77.4927 247.109 77.1482C246.795 76.7866 246.368 76.4851 245.828 76.2444C245.287 76.0031 244.607 75.8822 243.788 75.8822C242.428 75.8822 241.399 76.2185 240.702 76.8898C240.004 77.5447 239.655 78.311 239.655 79.1894C239.655 79.9988 239.934 80.6442 240.492 81.1268C241.068 81.6088 241.861 81.9704 242.872 82.2117L245.514 82.8577C246.507 83.0984 247.388 83.4429 248.155 83.8907C248.94 84.3384 249.559 84.9154 250.012 85.6216C250.465 86.3277 250.692 87.1802 250.692 88.179C250.692 89.1777 250.43 90.0992 249.908 90.9435C249.402 91.7871 248.661 92.4673 247.685 92.9841C246.725 93.4838 245.557 93.7333 244.18 93.7333Z" fill="black"/>
<path d="M272.281 93.4749V76.1406H266.004V74.3584H280.571V76.1406H274.294V93.4749H272.281Z" fill="black"/>
<path d="M297.193 93.4749V74.3584H303.732C305.057 74.3584 306.164 74.625 307.053 75.1589C307.943 75.6757 308.605 76.3477 309.041 77.1742C309.477 77.9836 309.695 78.8449 309.695 79.7576C309.695 80.5328 309.529 81.2814 309.198 82.0053C308.884 82.7285 308.405 83.3568 307.759 83.8907C307.114 84.4246 306.304 84.7951 305.327 85.0016L310.348 93.4749H308.073L303.183 85.1567H299.208V93.4749H297.193ZM303.706 76.1406H299.208V83.4258H303.706C304.595 83.4258 305.327 83.2536 305.902 82.909C306.478 82.5474 306.914 82.0914 307.21 81.5398C307.507 80.9717 307.655 80.3858 307.655 79.7835C307.655 79.1806 307.507 78.6036 307.21 78.0526C306.914 77.4839 306.478 77.0279 305.902 76.6834C305.327 76.3217 304.595 76.1406 303.706 76.1406Z" fill="black"/>
<path d="M334.044 93.7333C332.492 93.7333 331.184 93.4319 330.121 92.8289C329.057 92.2266 328.246 91.3913 327.688 90.3235C327.148 89.2557 326.878 88.0156 326.878 86.6033V74.3584H328.891V86.6033C328.891 88.153 329.319 89.4191 330.173 90.4007C331.028 91.3653 332.318 91.8473 334.044 91.8473C335.787 91.8473 337.077 91.3653 337.914 90.4007C338.769 89.4191 339.196 88.153 339.196 86.6033V74.3584H341.21V86.6033C341.21 88.0156 340.931 89.2557 340.373 90.3235C339.832 91.3913 339.03 92.2266 337.967 92.8289C336.903 93.4319 335.595 93.7333 334.044 93.7333Z" fill="black"/>
<path d="M367.254 93.7333C365.755 93.7333 364.438 93.4578 363.305 92.9068C362.172 92.3381 361.23 91.5888 360.48 90.6591C359.731 89.7116 359.164 88.6616 358.781 87.5076C358.414 86.3366 358.231 85.1396 358.231 83.9166C358.231 82.6937 358.414 81.4967 358.781 80.3256C359.164 79.1546 359.731 78.1039 360.48 77.1742C361.23 76.2267 362.172 75.4775 363.305 74.9265C364.438 74.3755 365.755 74.1 367.254 74.1C368.475 74.1 369.52 74.2551 370.392 74.5648C371.281 74.8752 372.023 75.2799 372.615 75.7789C373.208 76.2786 373.688 76.8037 374.054 77.3547C374.42 77.9063 374.69 78.4313 374.864 78.931C375.057 79.4301 375.178 79.8348 375.23 80.1451C375.3 80.4548 375.335 80.61 375.335 80.61H373.296C373.296 80.61 373.261 80.4548 373.191 80.1451C373.121 79.8348 372.973 79.4472 372.746 78.9823C372.519 78.5175 372.179 78.0526 371.726 77.5877C371.29 77.1222 370.706 76.7353 369.974 76.4249C369.259 76.1152 368.352 75.9601 367.254 75.9601C366.103 75.9601 365.092 76.1836 364.22 76.6314C363.348 77.0792 362.616 77.691 362.023 78.4655C361.448 79.2236 361.012 80.0761 360.715 81.0236C360.419 81.9533 360.271 82.9179 360.271 83.9166C360.271 84.8983 360.419 85.8629 360.715 86.8097C361.012 87.7572 361.448 88.6185 362.023 89.3931C362.616 90.1512 363.348 90.7541 364.22 91.2019C365.092 91.6496 366.103 91.8732 367.254 91.8732C368.352 91.8732 369.259 91.718 369.974 91.4083C370.706 91.098 371.29 90.711 371.726 90.2455C372.179 89.7807 372.519 89.3158 372.746 88.8509C372.973 88.3861 373.121 87.9985 373.191 87.6881C373.261 87.3613 373.296 87.1973 373.296 87.1973H375.335C375.335 87.1973 375.3 87.3613 375.23 87.6881C375.178 87.9985 375.057 88.4032 374.864 88.9022C374.69 89.3848 374.42 89.9099 374.054 90.4786C373.688 91.0296 373.208 91.5546 372.615 92.0543C372.023 92.5534 371.281 92.9581 370.392 93.2684C369.52 93.5781 368.475 93.7333 367.254 93.7333Z" fill="black"/>
<path d="M395.716 93.4749V76.1406H389.439V74.3584H404.006V76.1406H397.729V93.4749H395.716Z" fill="black"/>
<path d="M420.628 93.4749V74.3584H422.643V93.4749H420.628Z" fill="black"/>
<path d="M449.109 93.7333C447.592 93.7333 446.25 93.4578 445.081 92.9068C443.931 92.3381 442.963 91.5888 442.178 90.6591C441.412 89.7116 440.827 88.6527 440.426 87.4817C440.043 86.3106 439.851 85.1136 439.851 83.8907C439.851 82.6854 440.043 81.4967 440.426 80.3256C440.827 79.1546 441.412 78.1039 442.178 77.1742C442.963 76.2267 443.931 75.4775 445.081 74.9265C446.25 74.3755 447.592 74.1 449.109 74.1C450.626 74.1 451.96 74.3755 453.11 74.9265C454.261 75.4775 455.22 76.2267 455.987 77.1742C456.772 78.1039 457.365 79.1546 457.766 80.3256C458.167 81.4967 458.367 82.6854 458.367 83.8907C458.367 85.1136 458.167 86.3106 457.766 87.4817C457.365 88.6527 456.772 89.7116 455.987 90.6591C455.22 91.5888 454.261 92.3381 453.11 92.9068C451.96 93.4578 450.626 93.7333 449.109 93.7333ZM449.109 91.8732C450.521 91.8732 451.768 91.5287 452.849 90.8402C453.93 90.1341 454.775 89.1777 455.386 87.9725C455.996 86.7666 456.301 85.4062 456.301 83.8907C456.301 82.3922 455.996 81.0489 455.386 79.8608C454.775 78.6555 453.93 77.7081 452.849 77.019C451.768 76.3128 450.521 75.9601 449.109 75.9601C447.679 75.9601 446.424 76.3128 445.343 77.019C444.262 77.7081 443.416 78.6555 442.806 79.8608C442.196 81.0489 441.891 82.3922 441.891 83.8907C441.891 85.4062 442.196 86.7666 442.806 87.9725C443.416 89.1777 444.262 90.1341 445.343 90.8402C446.424 91.5287 447.679 91.8732 449.109 91.8732Z" fill="black"/>
<path d="M475.348 93.4749V74.3584H477.205L488.006 89.9099V74.3584H490.02V93.4749H488.163L477.362 77.9234V93.4749H475.348Z" fill="black"/>
<path d="M513.991 93.7333C512.857 93.7333 511.89 93.5952 511.088 93.3197C510.303 93.0271 509.65 92.6566 509.127 92.2089C508.621 91.7611 508.211 91.288 507.897 90.7883C507.601 90.2886 507.383 89.8155 507.243 89.3677C507.104 88.92 507.017 88.5583 506.982 88.2822C506.947 87.9896 506.93 87.8433 506.93 87.8433H508.97C508.97 87.8433 508.987 87.9814 509.022 88.2569C509.074 88.5324 509.179 88.8769 509.336 89.2898C509.51 89.6863 509.78 90.091 510.146 90.5039C510.513 90.9004 511.009 91.2361 511.637 91.5116C512.265 91.77 513.067 91.8992 514.043 91.8992C515.369 91.8992 516.441 91.5635 517.26 90.8915C518.079 90.2202 518.489 89.35 518.489 88.2822C518.489 87.2834 518.158 86.526 517.496 86.0092C516.85 85.4924 515.996 85.1048 514.933 84.8464L512.448 84.2523C511.506 84.0116 510.661 83.6924 509.911 83.2966C509.162 82.883 508.569 82.358 508.133 81.7209C507.697 81.0666 507.479 80.2655 507.479 79.318C507.479 78.2331 507.749 77.3034 508.29 76.5282C508.83 75.7536 509.563 75.1589 510.487 74.746C511.411 74.3153 512.465 74.1 513.651 74.1C514.837 74.1 515.813 74.2811 516.58 74.6427C517.347 75.0044 517.958 75.4521 518.411 75.986C518.864 76.5022 519.196 77.0279 519.405 77.5618C519.632 78.0957 519.771 78.5434 519.823 78.9051C519.893 79.2667 519.928 79.4472 519.928 79.4472H517.94C517.94 79.4472 517.923 79.3269 517.888 79.0856C517.853 78.8449 517.757 78.5517 517.6 78.2078C517.461 77.8455 517.234 77.4927 516.92 77.1482C516.607 76.7866 516.179 76.4851 515.639 76.2444C515.098 76.0031 514.418 75.8822 513.599 75.8822C512.239 75.8822 511.21 76.2185 510.513 76.8898C509.815 77.5447 509.467 78.311 509.467 79.1894C509.467 79.9988 509.745 80.6442 510.303 81.1268C510.879 81.6088 511.672 81.9704 512.684 82.2117L515.325 82.8577C516.318 83.0984 517.199 83.4429 517.966 83.8907C518.751 84.3384 519.37 84.9154 519.823 85.6216C520.276 86.3277 520.503 87.1802 520.503 88.179C520.503 89.1777 520.242 90.0992 519.719 90.9435C519.213 91.7871 518.472 92.4673 517.496 92.9841C516.537 93.4838 515.369 93.7333 513.991 93.7333Z" fill="black"/>
</g>
<defs>
<clipPath id="clip0_643_650">
<rect width="521" height="95" fill="white"/>
</clipPath>
</defs>
</svg>
