<svg width="383" height="78" viewBox="0 0 383 78" fill="none" xmlns="http://www.w3.org/2000/svg">
<path d="M0 1.00023H22L21.5 20.0002L0 1.00023Z" fill="white"/>
<path d="M21.5 20.0002L0.00390625 39.5002L0 1.00023L10.4834 10.2646L21.5 20.0002Z" fill="white"/>
<path d="M21.5 20.0002L0.00390625 39.5002L0 1.00023L10.4834 10.2646L21.5 20.0002Z" fill="white"/>
<path d="M72.4873 1.00047L38 38L21.5 20.0002L40.9841 1L54.9873 1.00023L72.4873 1.00047Z" fill="#27CEE7"/>
<path d="M20.5 56.5L0.0078125 78.0002L0.00390625 39.5002L20.5 56.5Z" fill="white"/>
<path d="M20.5 56.5L0.0078125 78.0002L0.00390625 39.5002L20.5 56.5Z" fill="white"/>
<path d="M38 38L0.00390625 39.5002L21.5 20.0002L38 38Z" fill="white"/>
<path d="M38 38L0.00390625 39.5002L21.5 20.0002L38 38Z" fill="white"/>
<path d="M38 38L18.9873 38.7046L0.00390625 39.5002L20.5 56.5L38 38Z" fill="white"/>
<path d="M38 38L18.9873 38.7046L0.00390625 39.5002L20.5 56.5L38 38Z" fill="white"/>
<path d="M71.4873 74.0005L38 38L20.5 56.5L41.9873 74.0005H48.4873H71.4873Z" fill="white"/>
<path d="M71.4873 74.0005L38 38L20.5 56.5L41.9873 74.0005H48.4873H71.4873Z" fill="white"/>
<path d="M54.4798 20.0002H40.5H21.5L38 38L42 33.1678L54.4798 20.0002Z" fill="white"/>
<path d="M54.4798 20.0002H40.5H21.5L38 38L42 33.1678L54.4798 20.0002Z" fill="white"/>
<path d="M54.4798 20.0002L40.9841 1L21.5 20.0002H54.4798Z" fill="white"/>
<path d="M54.4798 20.0002L40.9841 1L21.5 20.0002H54.4798Z" fill="white"/>
<path d="M52.5 53.5L38 38L20.5 56.5L52.5 53.5Z" fill="white"/>
<path d="M52.5 53.5L38 38L20.5 56.5L52.5 53.5Z" fill="white"/>
<path d="M52.5 53.5L20.5 56.5L41.9873 74.0005L52.5 53.5Z" fill="white"/>
<path d="M52.5 53.5L20.5 56.5L41.9873 74.0005L52.5 53.5Z" fill="white"/>
<path d="M88.6364 62V15.4545H94.2727V38.5455H94.8182L115.727 15.4545H123.091L103.545 36.4545L123.091 62H116.273L100.091 40.3636L94.2727 46.9091V62H88.6364ZM139.346 62V15.4545H144.983V57H166.619V62H139.346ZM221.767 38.7273C221.767 43.6364 220.88 47.8788 219.107 51.4545C217.335 55.0303 214.903 57.7879 211.812 59.7273C208.721 61.6667 205.191 62.6364 201.221 62.6364C197.251 62.6364 193.721 61.6667 190.63 59.7273C187.539 57.7879 185.107 55.0303 183.335 51.4545C181.562 47.8788 180.676 43.6364 180.676 38.7273C180.676 33.8182 181.562 29.5758 183.335 26C185.107 22.4242 187.539 19.6667 190.63 17.7273C193.721 15.7879 197.251 14.8182 201.221 14.8182C205.191 14.8182 208.721 15.7879 211.812 17.7273C214.903 19.6667 217.335 22.4242 219.107 26C220.88 29.5758 221.767 33.8182 221.767 38.7273ZM216.312 38.7273C216.312 34.697 215.638 31.2955 214.289 28.5227C212.956 25.75 211.145 23.6515 208.857 22.2273C206.585 20.803 204.039 20.0909 201.221 20.0909C198.403 20.0909 195.85 20.803 193.562 22.2273C191.289 23.6515 189.479 25.75 188.13 28.5227C186.797 31.2955 186.13 34.697 186.13 38.7273C186.13 42.7576 186.797 46.1591 188.13 48.9318C189.479 51.7045 191.289 53.803 193.562 55.2273C195.85 56.6515 198.403 57.3636 201.221 57.3636C204.039 57.3636 206.585 56.6515 208.857 55.2273C211.145 53.803 212.956 51.7045 214.289 48.9318C215.638 46.1591 216.312 42.7576 216.312 38.7273ZM240.204 62V15.4545H255.931C259.568 15.4545 262.552 16.0758 264.886 17.3182C267.219 18.5455 268.946 20.2348 270.068 22.3864C271.189 24.5379 271.749 26.9848 271.749 29.7273C271.749 32.4697 271.189 34.9015 270.068 37.0227C268.946 39.1439 267.227 40.8106 264.908 42.0227C262.59 43.2197 259.628 43.8182 256.022 43.8182H243.295V38.7273H255.84C258.325 38.7273 260.325 38.3636 261.84 37.6364C263.371 36.9091 264.477 35.8788 265.158 34.5455C265.855 33.197 266.204 31.5909 266.204 29.7273C266.204 27.8636 265.855 26.2348 265.158 24.8409C264.461 23.447 263.348 22.3712 261.818 21.6136C260.287 20.8409 258.264 20.4545 255.749 20.4545H245.84V62H240.204ZM262.113 41.0909L273.568 62H267.022L255.749 41.0909H262.113ZM292.01 62H286.101L303.192 15.4545H309.01L326.101 62H320.192L306.283 22.8182H305.92L292.01 62ZM294.192 43.8182H318.01V48.8182H294.192V43.8182ZM356.675 62H342.311V15.4545H357.311C361.827 15.4545 365.69 16.3864 368.902 18.25C372.114 20.0985 374.577 22.7576 376.289 26.2273C378.001 29.6818 378.857 33.8182 378.857 38.6364C378.857 43.4848 377.993 47.6591 376.266 51.1591C374.539 54.6439 372.023 57.3258 368.72 59.2045C365.417 61.0682 361.402 62 356.675 62ZM347.948 57H356.311C360.16 57 363.349 56.2576 365.88 54.7727C368.41 53.2879 370.296 51.1742 371.539 48.4318C372.781 45.6894 373.402 42.4242 373.402 38.6364C373.402 34.8788 372.789 31.6439 371.561 28.9318C370.334 26.2045 368.501 24.1136 366.061 22.6591C363.622 21.1894 360.584 20.4545 356.948 20.4545H347.948V57Z" fill="white"/>
</svg>
