<svg width="649" height="171" viewBox="0 0 649 171" fill="none" xmlns="http://www.w3.org/2000/svg">
<path d="M53.1074 22L40.4628 39.651H16.438V111.516L82.1901 22H153L102.421 91.3433L151.736 160.687H83.4545L58.1653 125.385L68.281 115.298L91.0413 145.557H123.917L83.4545 91.3433L123.917 37.1295H91.0413L0 161V22H53.1074Z" fill="white"/>
<path d="M187.807 97V24.2727H196.614V60.3523H197.466L230.136 24.2727H241.642L211.102 57.0852L241.642 97H230.989L205.705 63.1932L196.614 73.4205V97H187.807ZM267.041 97V24.2727H275.848V89.1875H309.655V97H267.041ZM395.823 60.6364C395.823 68.3068 394.438 74.9356 391.668 80.5227C388.898 86.1098 385.098 90.4186 380.269 93.4489C375.439 96.4792 369.923 97.9943 363.721 97.9943C357.518 97.9943 352.002 96.4792 347.172 93.4489C342.343 90.4186 338.543 86.1098 335.773 80.5227C333.003 74.9356 331.618 68.3068 331.618 60.6364C331.618 52.9659 333.003 46.3371 335.773 40.75C338.543 35.1629 342.343 30.8542 347.172 27.8239C352.002 24.7936 357.518 23.2784 363.721 23.2784C369.923 23.2784 375.439 24.7936 380.269 27.8239C385.098 30.8542 388.898 35.1629 391.668 40.75C394.438 46.3371 395.823 52.9659 395.823 60.6364ZM387.3 60.6364C387.3 54.339 386.247 49.0241 384.14 44.6918C382.056 40.3594 379.227 37.0805 375.652 34.8551C372.101 32.6297 368.124 31.517 363.721 31.517C359.317 31.517 355.328 32.6297 351.753 34.8551C348.202 37.0805 345.373 40.3594 343.266 44.6918C341.183 49.0241 340.141 54.339 340.141 60.6364C340.141 66.9337 341.183 72.2486 343.266 76.581C345.373 80.9134 348.202 84.1922 351.753 86.4176C355.328 88.643 359.317 89.7557 363.721 89.7557C368.124 89.7557 372.101 88.643 375.652 86.4176C379.227 84.1922 382.056 80.9134 384.14 76.581C386.247 72.2486 387.3 66.9337 387.3 60.6364ZM424.631 97V24.2727H449.205C454.887 24.2727 459.551 25.2434 463.196 27.1847C466.842 29.1023 469.541 31.7419 471.293 35.1037C473.045 38.4654 473.921 42.2888 473.921 46.5739C473.921 50.8589 473.045 54.6586 471.293 57.973C469.541 61.2874 466.854 63.8916 463.232 65.7855C459.61 67.6558 454.981 68.5909 449.347 68.5909H429.461V60.6364H449.063C452.945 60.6364 456.07 60.0682 458.438 58.9318C460.829 57.7955 462.557 56.1856 463.623 54.1023C464.712 51.9953 465.256 49.4858 465.256 46.5739C465.256 43.6619 464.712 41.1169 463.623 38.9389C462.534 36.7609 460.793 35.08 458.402 33.8963C456.011 32.6889 452.851 32.0852 448.921 32.0852H433.438V97H424.631ZM458.864 64.3295L476.762 97H466.534L448.921 64.3295H458.864ZM505.579 97H496.346L523.05 24.2727H532.141L558.846 97H549.613L527.88 35.7784H527.312L505.579 97ZM508.988 68.5909H546.204V76.4034H508.988V68.5909ZM606.617 97H584.174V24.2727H607.612C614.666 24.2727 620.703 25.7287 625.722 28.6406C630.741 31.5289 634.588 35.6837 637.263 41.1051C639.939 46.5028 641.276 52.9659 641.276 60.4943C641.276 68.0701 639.927 74.5923 637.228 80.0611C634.529 85.5062 630.599 89.6965 625.438 92.6321C620.277 95.544 614.004 97 606.617 97ZM592.981 89.1875H606.049C612.062 89.1875 617.046 88.0275 620.999 85.7074C624.953 83.3873 627.9 80.0848 629.842 75.7997C631.783 71.5147 632.754 66.4129 632.754 60.4943C632.754 54.6231 631.795 49.5687 629.877 45.331C627.96 41.0696 625.095 37.8026 621.283 35.5298C617.472 33.2334 612.725 32.0852 607.043 32.0852H592.981V89.1875ZM212.665 133H208.261C208.001 131.733 207.545 130.621 206.894 129.662C206.255 128.703 205.474 127.898 204.55 127.247C203.639 126.584 202.627 126.087 201.514 125.756C200.402 125.424 199.241 125.259 198.034 125.259C195.832 125.259 193.838 125.815 192.05 126.928C190.275 128.04 188.86 129.68 187.807 131.846C186.765 134.012 186.244 136.67 186.244 139.818C186.244 142.967 186.765 145.624 187.807 147.79C188.86 149.957 190.275 151.596 192.05 152.709C193.838 153.821 195.832 154.378 198.034 154.378C199.241 154.378 200.402 154.212 201.514 153.881C202.627 153.549 203.639 153.058 204.55 152.407C205.474 151.744 206.255 150.933 206.894 149.974C207.545 149.004 208.001 147.891 208.261 146.636H212.665C212.333 148.495 211.73 150.158 210.854 151.626C209.978 153.094 208.889 154.342 207.587 155.372C206.285 156.39 204.823 157.165 203.201 157.698C201.591 158.231 199.869 158.497 198.034 158.497C194.933 158.497 192.175 157.74 189.76 156.224C187.345 154.709 185.445 152.555 184.06 149.761C182.675 146.968 181.983 143.653 181.983 139.818C181.983 135.983 182.675 132.669 184.06 129.875C185.445 127.081 187.345 124.927 189.76 123.412C192.175 121.897 194.933 121.139 198.034 121.139C199.869 121.139 201.591 121.406 203.201 121.938C204.823 122.471 206.285 123.252 207.587 124.282C208.889 125.3 209.978 126.543 210.854 128.011C211.73 129.467 212.333 131.13 212.665 133ZM228.272 158H223.655L237.008 121.636H241.553L254.905 158H250.289L239.422 127.389H239.138L228.272 158ZM229.976 143.795H248.584V147.702H229.976V143.795ZM267.569 121.636H272.825L285.183 151.821H285.609L297.967 121.636H303.223V158H299.104V130.372H298.748L287.385 158H283.407L272.044 130.372H271.689V158H267.569V121.636ZM319.052 158V121.636H331.339C334.192 121.636 336.523 122.151 338.335 123.181C340.157 124.199 341.507 125.578 342.383 127.318C343.259 129.058 343.697 131 343.697 133.142C343.697 135.285 343.259 137.232 342.383 138.984C341.519 140.736 340.181 142.132 338.37 143.174C336.559 144.204 334.239 144.719 331.41 144.719H322.603V140.812H331.268C333.221 140.812 334.789 140.475 335.973 139.8C337.157 139.126 338.015 138.214 338.548 137.066C339.092 135.906 339.364 134.598 339.364 133.142C339.364 131.686 339.092 130.384 338.548 129.236C338.015 128.088 337.151 127.188 335.955 126.537C334.76 125.874 333.174 125.543 331.197 125.543H323.455V158H319.052ZM381.654 121.636H386.057V145.713C386.057 148.199 385.471 150.418 384.299 152.371C383.139 154.313 381.5 155.846 379.381 156.97C377.262 158.083 374.776 158.639 371.924 158.639C369.071 158.639 366.585 158.083 364.466 156.97C362.347 155.846 360.702 154.313 359.53 152.371C358.37 150.418 357.79 148.199 357.79 145.713V121.636H362.194V145.358C362.194 147.134 362.584 148.714 363.365 150.099C364.147 151.472 365.259 152.555 366.703 153.348C368.159 154.129 369.9 154.52 371.924 154.52C373.948 154.52 375.688 154.129 377.144 153.348C378.6 152.555 379.712 151.472 380.482 150.099C381.263 148.714 381.654 147.134 381.654 145.358V121.636ZM421.737 130.727C421.524 128.928 420.66 127.531 419.145 126.537C417.63 125.543 415.771 125.045 413.569 125.045C411.96 125.045 410.551 125.306 409.344 125.827C408.148 126.348 407.213 127.064 406.538 127.975C405.875 128.887 405.544 129.922 405.544 131.082C405.544 132.053 405.775 132.888 406.236 133.586C406.71 134.272 407.314 134.847 408.047 135.308C408.781 135.758 409.551 136.131 410.356 136.427C411.161 136.711 411.9 136.942 412.575 137.119L416.268 138.114C417.215 138.362 418.269 138.705 419.429 139.143C420.601 139.581 421.719 140.179 422.785 140.937C423.862 141.683 424.75 142.641 425.448 143.813C426.146 144.985 426.496 146.423 426.496 148.128C426.496 150.093 425.981 151.868 424.951 153.455C423.933 155.041 422.441 156.301 420.476 157.237C418.523 158.172 416.15 158.639 413.356 158.639C410.752 158.639 408.497 158.219 406.591 157.379C404.698 156.538 403.206 155.366 402.117 153.863C401.04 152.36 400.43 150.614 400.288 148.625H404.834C404.952 149.998 405.414 151.134 406.219 152.034C407.035 152.922 408.065 153.585 409.308 154.023C410.563 154.449 411.912 154.662 413.356 154.662C415.037 154.662 416.546 154.39 417.884 153.845C419.222 153.289 420.281 152.519 421.062 151.537C421.844 150.543 422.234 149.383 422.234 148.057C422.234 146.849 421.897 145.867 421.222 145.109C420.547 144.352 419.66 143.736 418.559 143.263C417.458 142.789 416.268 142.375 414.99 142.02L410.515 140.741C407.675 139.925 405.425 138.759 403.768 137.244C402.111 135.728 401.282 133.746 401.282 131.295C401.282 129.259 401.833 127.484 402.934 125.969C404.046 124.442 405.538 123.258 407.408 122.418C409.29 121.565 411.391 121.139 413.711 121.139C416.055 121.139 418.139 121.559 419.961 122.4C421.784 123.228 423.229 124.365 424.294 125.809C425.371 127.253 425.939 128.893 425.998 130.727H421.737Z" fill="white"/>
</svg>
