<svg width="655" height="132" viewBox="0 0 655 132" fill="none" xmlns="http://www.w3.org/2000/svg">
<path d="M50.4237 0L38.4181 16.7591H15.6073V84.9924L78.0367 0H145.268L97.2457 65.8392L144.068 131.678H79.2373L55.226 98.1603L64.8305 88.5837L86.4406 117.314H117.655L79.2373 65.8392L117.655 14.3649H86.4406L0 131.976V0H50.4237Z" fill="white"/>
<path d="M215.936 91.1485V40.7404H222.04V65.7476H222.63L245.275 40.7404H253.249L232.082 63.4831L253.249 91.1485H245.865L228.341 67.7166L222.04 74.8053V91.1485H215.936Z" fill="white"/>
<path d="M295.806 91.1485V40.7404H301.91V85.7336H325.342V91.1485H295.806Z" fill="white"/>
<path d="M410.017 65.9445C410.017 71.261 409.058 75.8554 407.138 79.7279C405.218 83.6004 402.584 86.5868 399.237 88.6872C395.889 90.7875 392.066 91.8377 387.767 91.8377C383.468 91.8377 379.645 90.7875 376.297 88.6872C372.95 86.5868 370.316 83.6004 368.396 79.7279C366.477 75.8554 365.517 71.261 365.517 65.9445C365.517 60.628 366.477 56.0335 368.396 52.161C370.316 48.2885 372.95 45.3021 376.297 43.2018C379.645 41.1014 383.468 40.0513 387.767 40.0513C392.066 40.0513 395.889 41.1014 399.237 43.2018C402.584 45.3021 405.218 48.2885 407.138 52.161C409.058 56.0335 410.017 60.628 410.017 65.9445ZM404.11 65.9445C404.11 61.5797 403.38 57.8959 401.92 54.8931C400.476 51.8903 398.515 49.6176 396.037 48.0752C393.576 46.5328 390.819 45.7616 387.767 45.7616C384.715 45.7616 381.95 46.5328 379.472 48.0752C377.011 49.6176 375.05 51.8903 373.59 54.8931C372.146 57.8959 371.424 61.5797 371.424 65.9445C371.424 70.3092 372.146 73.993 373.59 76.9959C375.05 79.9987 377.011 82.2713 379.472 83.8137C381.95 85.3562 384.715 86.1274 387.767 86.1274C390.819 86.1274 393.576 85.3562 396.037 83.8137C398.515 82.2713 400.476 79.9987 401.92 76.9959C403.38 73.993 404.11 70.3092 404.11 65.9445Z" fill="white"/>
<path d="M454.937 91.1485V40.7404H471.969C475.907 40.7404 479.14 41.4132 481.667 42.7587C484.194 44.0879 486.064 45.9174 487.279 48.2475C488.493 50.5776 489.1 53.2276 489.1 56.1976C489.1 59.1676 488.493 61.8012 487.279 64.0985C486.064 66.3957 484.202 68.2007 481.691 69.5134C479.181 70.8097 475.973 71.4579 472.068 71.4579H458.284V65.9445H471.871C474.562 65.9445 476.728 65.5507 478.369 64.763C480.026 63.9754 481.224 62.8596 481.962 61.4156C482.717 59.9552 483.094 58.2159 483.094 56.1976C483.094 54.1793 482.717 52.4154 481.962 50.9057C481.207 49.3961 480.001 48.2311 478.344 47.4107C476.687 46.5738 474.496 46.1554 471.772 46.1554H461.041V91.1485H454.937ZM478.664 68.5043L491.069 91.1485H483.98L471.772 68.5043H478.664Z" fill="white"/>
<path d="M535.994 91.1485H529.595L548.104 40.7404H554.405L572.914 91.1485H566.515L551.452 48.7152H551.058L535.994 91.1485ZM538.357 71.4579H564.152V76.8728H538.357V71.4579Z" fill="white"/>
<path d="M630.977 91.1485H615.422V40.7404H631.666C636.556 40.7404 640.74 41.7496 644.219 43.7679C647.698 45.7698 650.364 48.6495 652.218 52.4072C654.073 56.1484 655 60.628 655 65.846C655 71.0969 654.064 75.6175 652.194 79.408C650.323 83.182 647.599 86.0864 644.022 88.1211C640.445 90.1394 636.097 91.1485 630.977 91.1485ZM621.526 85.7336H630.583C634.751 85.7336 638.205 84.9295 640.946 83.3215C643.686 81.7134 645.729 79.4244 647.074 76.4544C648.42 73.4844 649.093 69.9482 649.093 65.846C649.093 61.7766 648.428 58.2733 647.099 55.3361C645.77 52.3825 643.784 50.1181 641.142 48.5429C638.501 46.9512 635.211 46.1554 631.272 46.1554H621.526V85.7336Z" fill="white"/>
</svg>
