<svg width="257" height="101" viewBox="0 0 257 101" fill="none" xmlns="http://www.w3.org/2000/svg">
<path d="M4.544 73V28.968H35.392V37.544H15.68V46.568H32.384V55.016H15.68V64.424H35.392V73H4.544ZM42.7805 73V40.36H52.5085L52.7645 44.328H53.3405C53.9805 43.2187 54.7698 42.344 55.7085 41.704C56.6472 41.0213 57.7138 40.552 58.9085 40.296C60.1032 39.9973 61.4045 39.848 62.8125 39.848C64.9885 39.848 66.7165 40.1253 67.9965 40.68C69.3192 41.2347 70.3218 42.0453 71.0045 43.112C71.6872 44.1787 72.1352 45.5013 72.3485 47.08C72.6045 48.6587 72.7325 50.4933 72.7325 52.584V73H62.4285V55.72C62.4285 53.9707 62.3858 52.6053 62.3005 51.624C62.2152 50.6 62.0232 49.8533 61.7245 49.384C61.4258 48.9147 60.9565 48.6373 60.3165 48.552C59.7192 48.424 58.9085 48.36 57.8845 48.36C56.8178 48.36 55.9432 48.488 55.2605 48.744C54.6205 48.9573 54.1298 49.3413 53.7885 49.896C53.4898 50.4507 53.2765 51.24 53.1485 52.264C53.0632 53.2453 53.0205 54.4827 53.0205 55.976V73H42.7805ZM87.313 73L77.457 40.36H87.953L94.033 63.848H94.673L100.561 40.36H110.929L101.137 73H87.313ZM115.653 33.704V25.448H126.213V33.704H115.653ZM115.781 73V40.36H126.149V73H115.781ZM146.765 73.512C145.4 73.512 143.906 73.4693 142.285 73.384C140.706 73.2987 139.149 73.192 137.613 73.064C136.12 72.936 134.776 72.7867 133.581 72.616V65.384C134.264 65.4267 135.032 65.4907 135.885 65.576C136.781 65.6613 137.698 65.7253 138.637 65.768C139.576 65.8107 140.472 65.8533 141.325 65.896C142.221 65.896 143.032 65.896 143.757 65.896C145.762 65.896 147.192 65.832 148.045 65.704C148.941 65.576 149.496 65.32 149.709 64.936C149.965 64.5093 150.093 63.9547 150.093 63.272C150.093 62.5893 150.008 62.0987 149.837 61.8C149.709 61.5013 149.41 61.288 148.941 61.16C148.514 61.032 147.768 60.904 146.701 60.776L139.085 59.816C137.25 59.56 135.864 59.0267 134.925 58.216C133.986 57.3627 133.346 56.232 133.005 54.824C132.706 53.3733 132.557 51.688 132.557 49.768C132.557 47.5067 132.898 45.736 133.581 44.456C134.264 43.1333 135.202 42.152 136.397 41.512C137.634 40.8293 139.085 40.3813 140.749 40.168C142.456 39.9547 144.269 39.848 146.189 39.848C147.554 39.848 148.962 39.8907 150.413 39.976C151.864 40.0613 153.25 40.1893 154.573 40.36C155.896 40.488 156.984 40.6373 157.837 40.808V47.976C156.77 47.8907 155.64 47.8053 154.445 47.72C153.293 47.6347 152.184 47.5707 151.117 47.528C150.05 47.4853 149.154 47.464 148.429 47.464C146.722 47.464 145.4 47.5067 144.461 47.592C143.565 47.6773 142.946 47.8907 142.605 48.232C142.306 48.5733 142.157 49.128 142.157 49.896C142.157 50.4933 142.2 50.9627 142.285 51.304C142.413 51.6027 142.69 51.816 143.117 51.944C143.544 52.072 144.205 52.2 145.101 52.328L152.781 53.288C154.232 53.4587 155.469 53.8 156.493 54.312C157.517 54.824 158.285 55.7413 158.797 57.064C159.352 58.3867 159.629 60.3707 159.629 63.016C159.629 65.4053 159.309 67.304 158.669 68.712C158.072 70.0773 157.197 71.1227 156.045 71.848C154.893 72.5307 153.528 72.9787 151.949 73.192C150.413 73.4053 148.685 73.512 146.765 73.512ZM165.965 33.704V25.448H176.525V33.704H165.965ZM166.093 73V40.36H176.461V73H166.093ZM198.742 73.512C195.84 73.512 193.43 73.3413 191.51 73C189.59 72.6587 188.075 72.104 186.966 71.336C185.856 70.568 185.046 69.544 184.534 68.264C184.022 66.984 183.68 65.384 183.51 63.464C183.382 61.544 183.318 59.2613 183.318 56.616C183.318 53.9707 183.382 51.7093 183.51 49.832C183.68 47.912 184.022 46.312 184.534 45.032C185.046 43.752 185.856 42.728 186.966 41.96C188.075 41.192 189.59 40.6587 191.51 40.36C193.43 40.0187 195.84 39.848 198.742 39.848C201.686 39.848 204.118 40.0187 206.038 40.36C207.958 40.6587 209.472 41.192 210.582 41.96C211.691 42.728 212.502 43.752 213.014 45.032C213.526 46.312 213.846 47.912 213.974 49.832C214.144 51.7093 214.229 53.9707 214.229 56.616C214.229 59.2613 214.144 61.544 213.974 63.464C213.846 65.384 213.526 66.984 213.014 68.264C212.502 69.544 211.691 70.568 210.582 71.336C209.472 72.104 207.958 72.6587 206.038 73C204.118 73.3413 201.686 73.512 198.742 73.512ZM198.742 65.704C200.022 65.704 201.024 65.6187 201.75 65.448C202.475 65.2773 202.987 64.8933 203.286 64.296C203.584 63.6987 203.755 62.7813 203.798 61.544C203.883 60.3067 203.926 58.664 203.926 56.616C203.926 54.568 203.883 52.9467 203.798 51.752C203.755 50.5573 203.584 49.6613 203.286 49.064C202.987 48.4667 202.475 48.0827 201.75 47.912C201.024 47.7413 200.022 47.656 198.742 47.656C197.462 47.656 196.459 47.7413 195.734 47.912C195.051 48.0827 194.56 48.4667 194.262 49.064C193.963 49.6613 193.771 50.5573 193.686 51.752C193.643 52.9467 193.622 54.568 193.622 56.616C193.622 58.664 193.643 60.3067 193.686 61.544C193.771 62.7813 193.963 63.6987 194.262 64.296C194.56 64.8933 195.051 65.2773 195.734 65.448C196.459 65.6187 197.462 65.704 198.742 65.704Z" fill="white"/>
<path d="M214.27 13.36H221.08L234.19 34H227.35L214.27 13.36ZM225.25 17.56L227.53 13.36H234.1L228.4 22.54L225.25 17.56ZM219.91 24.64L223.03 29.59L220.72 34H214.15L219.91 24.64ZM238.28 13.36H244.28V34H238.28V13.36ZM246.74 26.98H245.54V22.39H246.56C247.18 22.39 247.65 22.37 247.97 22.33C248.29 22.27 248.54 22.17 248.72 22.03C248.88 21.89 248.99 21.68 249.05 21.4C249.11 21.12 249.14 20.71 249.14 20.17C249.14 19.63 249.11 19.22 249.05 18.94C248.99 18.64 248.88 18.42 248.72 18.28C248.56 18.14 248.32 18.05 248 18.01C247.7 17.97 247.22 17.95 246.56 17.95H245.54V13.36H248.63C250.05 13.36 251.2 13.5 252.08 13.78C252.96 14.06 253.64 14.49 254.12 15.07C254.56 15.61 254.85 16.28 254.99 17.08C255.15 17.88 255.23 18.91 255.23 20.17C255.23 21.79 255.08 23.04 254.78 23.92C254.36 25.04 253.62 25.83 252.56 26.29L255.68 34H249.38L246.74 26.98Z" fill="url(#paint0_linear_93_875)"/>
<defs>
<linearGradient id="paint0_linear_93_875" x1="216" y1="26" x2="252.5" y2="26" gradientUnits="userSpaceOnUse">
<stop stop-color="#FD7B2E"/>
<stop offset="1" stop-color="#FD332E"/>
</linearGradient>
</defs>
</svg>
